<svg id="visual" viewBox="0 0 540 960" width="540" height="960" xmlns="http://www.w3.org/2000/svg" xmlns:xlink="http://www.w3.org/1999/xlink" version="1.1"><rect x="0" y="0" width="540" height="960" fill="#d8c8c8"></rect><g transform="translate(201.2177541605561 507.52567783393766)"><path d="M310.1 -321C409.8 -285.9 504.1 -195.7 528.4 -88.6C552.7 18.5 507.2 142.5 428.1 216.8C349 291.1 236.4 315.6 142.2 318.8C47.9 321.9 -28 303.7 -96.8 274.8C-165.7 246 -227.5 206.5 -281.2 146.4C-335 86.3 -380.7 5.5 -393.7 -95.2C-406.6 -195.9 -386.8 -316.7 -315.8 -356.8C-244.7 -396.9 -122.3 -356.5 -8.6 -346.3C105.2 -336 210.4 -356.1 310.1 -321" fill="#7b2a4b"></path></g></svg>