<svg id="visual" viewBox="0 0 540 960" width="540" height="960" xmlns="http://www.w3.org/2000/svg" xmlns:xlink="http://www.w3.org/1999/xlink" version="1.1"><rect x="0" y="0" width="540" height="960" fill="#FEBF8A"></rect><path d="M0 777L15 784.7C30 792.3 60 807.7 90 802C120 796.3 150 769.7 180 753.5C210 737.3 240 731.7 270 744.8C300 758 330 790 360 806C390 822 420 822 450 808.7C480 795.3 510 768.7 525 755.3L540 742L540 961L525 961C510 961 480 961 450 961C420 961 390 961 360 961C330 961 300 961 270 961C240 961 210 961 180 961C150 961 120 961 90 961C60 961 30 961 15 961L0 961Z" fill="#5CC1CA" stroke-linecap="round" stroke-linejoin="miter"></path></svg>