<svg id="visual" viewBox="0 0 900 600" width="900" height="600" xmlns="http://www.w3.org/2000/svg" xmlns:xlink="http://www.w3.org/1999/xlink" version="1.1"><rect x="0" y="0" width="900" height="600" fill="#5dc1ca"></rect><path d="M584 600L586.3 580C588.7 560 593.3 520 596.5 480C599.7 440 601.3 400 599.2 360C597 320 591 280 579.3 240C567.7 200 550.3 160 550.8 120C551.3 80 569.7 40 578.8 20L588 0L900 0L900 20C900 40 900 80 900 120C900 160 900 200 900 240C900 280 900 320 900 360C900 400 900 440 900 480C900 520 900 560 900 580L900 600Z" fill="#dce8e9" stroke-linecap="round" stroke-linejoin="miter"></path></svg>