<svg id="visual" viewBox="0 0 540 960" width="540" height="960" xmlns="http://www.w3.org/2000/svg" xmlns:xlink="http://www.w3.org/1999/xlink" version="1.1"><rect x="0" y="0" width="540" height="960" fill="#ffffff"></rect><path d="M0 822L12.8 815.2C25.7 808.3 51.3 794.7 77 781.5C102.7 768.3 128.3 755.7 154 761C179.7 766.3 205.3 789.7 231.2 786.3C257 783 283 753 308.8 753.7C334.7 754.3 360.3 785.7 386 792.3C411.7 799 437.3 781 463 770.2C488.7 759.3 514.3 755.7 527.2 753.8L540 752L540 961L527.2 961C514.3 961 488.7 961 463 961C437.3 961 411.7 961 386 961C360.3 961 334.7 961 308.8 961C283 961 257 961 231.2 961C205.3 961 179.7 961 154 961C128.3 961 102.7 961 77 961C51.3 961 25.7 961 12.8 961L0 961Z" fill="#95AEF2" stroke-linecap="round" stroke-linejoin="miter"></path></svg>