<svg id="visual" viewBox="0 0 540 960" width="540" height="960" xmlns="http://www.w3.org/2000/svg" xmlns:xlink="http://www.w3.org/1999/xlink" version="1.1"><rect x="0" y="0" width="540" height="960" fill="#D4E2D4"></rect><path d="M0 794L11.3 796.7C22.7 799.3 45.3 804.7 67.8 793.5C90.3 782.3 112.7 754.7 135.2 753C157.7 751.3 180.3 775.7 202.8 776.3C225.3 777 247.7 754 270.2 739.3C292.7 724.7 315.3 718.3 337.8 726.7C360.3 735 382.7 758 405.2 770.5C427.7 783 450.3 785 472.8 782.2C495.3 779.3 517.7 771.7 528.8 767.8L540 764L540 961L528.8 961C517.7 961 495.3 961 472.8 961C450.3 961 427.7 961 405.2 961C382.7 961 360.3 961 337.8 961C315.3 961 292.7 961 270.2 961C247.7 961 225.3 961 202.8 961C180.3 961 157.7 961 135.2 961C112.7 961 90.3 961 67.8 961C45.3 961 22.7 961 11.3 961L0 961Z" fill="#FEBF8A" stroke-linecap="round" stroke-linejoin="miter"></path></svg>