<svg id="visual" viewBox="0 0 540 960" width="540" height="960" xmlns="http://www.w3.org/2000/svg" xmlns:xlink="http://www.w3.org/1999/xlink" version="1.1"><rect x="0" y="0" width="540" height="960" fill="#5CC1CA"></rect><path d="M0 593L11.3 591.3C22.7 589.7 45.3 586.3 67.8 580.8C90.3 575.3 112.7 567.7 135.2 572.7C157.7 577.7 180.3 595.3 202.8 595.3C225.3 595.3 247.7 577.7 270.2 565.3C292.7 553 315.3 546 337.8 550.5C360.3 555 382.7 571 405.2 576.7C427.7 582.3 450.3 577.7 472.8 573.7C495.3 569.7 517.7 566.3 528.8 564.7L540 563L540 961L528.8 961C517.7 961 495.3 961 472.8 961C450.3 961 427.7 961 405.2 961C382.7 961 360.3 961 337.8 961C315.3 961 292.7 961 270.2 961C247.7 961 225.3 961 202.8 961C180.3 961 157.7 961 135.2 961C112.7 961 90.3 961 67.8 961C45.3 961 22.7 961 11.3 961L0 961Z" fill="#DBE8E9" stroke-linecap="round" stroke-linejoin="miter"></path></svg>