<svg id="visual" viewBox="0 0 900 600" width="900" height="600" xmlns="http://www.w3.org/2000/svg" xmlns:xlink="http://www.w3.org/1999/xlink" version="1.1"><rect x="0" y="0" width="900" height="600" fill="#ffbf8a"></rect><path d="M695 600L699.8 587.5C704.7 575 714.3 550 722.8 525C731.3 500 738.7 475 740.7 450C742.7 425 739.3 400 730.7 375C722 350 708 325 701.7 300C695.3 275 696.7 250 699.3 225C702 200 706 175 711.2 150C716.3 125 722.7 100 721.3 75C720 50 711 25 706.5 12.5L702 0L900 0L900 12.5C900 25 900 50 900 75C900 100 900 125 900 150C900 175 900 200 900 225C900 250 900 275 900 300C900 325 900 350 900 375C900 400 900 425 900 450C900 475 900 500 900 525C900 550 900 575 900 587.5L900 600Z" fill="#5dc1ca" stroke-linecap="round" stroke-linejoin="miter"></path></svg>