<svg id="visual" viewBox="0 0 540 960" width="540" height="960" xmlns="http://www.w3.org/2000/svg" xmlns:xlink="http://www.w3.org/1999/xlink" version="1.1"><rect x="0" y="0" width="540" height="960" fill="#95AEF2"></rect><path d="M0 804L10 794.2C20 784.3 40 764.7 60 752C80 739.3 100 733.7 120 740.7C140 747.7 160 767.3 180 768.2C200 769 220 751 240 746.5C260 742 280 751 300 759.2C320 767.3 340 774.7 360 780.5C380 786.3 400 790.7 420 796.2C440 801.7 460 808.3 480 800C500 791.7 520 768.3 530 756.7L540 745L540 961L530 961C520 961 500 961 480 961C460 961 440 961 420 961C400 961 380 961 360 961C340 961 320 961 300 961C280 961 260 961 240 961C220 961 200 961 180 961C160 961 140 961 120 961C100 961 80 961 60 961C40 961 20 961 10 961L0 961Z" fill="#D4E2D4" stroke-linecap="round" stroke-linejoin="miter"></path></svg>