<svg id="visual" viewBox="0 0 900 600" width="900" height="600" xmlns="http://www.w3.org/2000/svg" xmlns:xlink="http://www.w3.org/1999/xlink" version="1.1"><rect x="0" y="0" width="900" height="600" fill="#D4E2D4"></rect><path d="M672 600L676.7 590C681.3 580 690.7 560 701.7 540C712.7 520 725.3 500 734.7 480C744 460 750 440 749.2 420C748.3 400 740.7 380 735.3 360C730 340 727 320 726.7 300C726.3 280 728.7 260 721.3 240C714 220 697 200 691.3 180C685.7 160 691.3 140 699.7 120C708 100 719 80 724.8 60C730.7 40 731.3 20 731.7 10L732 0L900 0L900 10C900 20 900 40 900 60C900 80 900 100 900 120C900 140 900 160 900 180C900 200 900 220 900 240C900 260 900 280 900 300C900 320 900 340 900 360C900 380 900 400 900 420C900 440 900 460 900 480C900 500 900 520 900 540C900 560 900 580 900 590L900 600Z" fill="#ffbf8a" stroke-linecap="round" stroke-linejoin="miter"></path></svg>