<svg id="visual" viewBox="0 0 900 600" width="900" height="600" xmlns="http://www.w3.org/2000/svg" xmlns:xlink="http://www.w3.org/1999/xlink" version="1.1"><rect x="0" y="0" width="900" height="600" fill="#95aef2"></rect><path d="M707 600L706.7 587.5C706.3 575 705.7 550 706.5 525C707.3 500 709.7 475 702.7 450C695.7 425 679.3 400 679.7 375C680 350 697 325 698.3 300C699.7 275 685.3 250 673 225C660.7 200 650.3 175 647 150C643.7 125 647.3 100 654.3 75C661.3 50 671.7 25 676.8 12.5L682 0L900 0L900 12.5C900 25 900 50 900 75C900 100 900 125 900 150C900 175 900 200 900 225C900 250 900 275 900 300C900 325 900 350 900 375C900 400 900 425 900 450C900 475 900 500 900 525C900 550 900 575 900 587.5L900 600Z" fill="#D4E2D4" stroke-linecap="round" stroke-linejoin="miter"></path></svg>